<svg width="38" height="42" viewBox="0 0 38 42" fill="none" xmlns="http://www.w3.org/2000/svg">
<path d="M6.09398 41.7795C5.98842 41.8844 5.85388 41.9559 5.70731 41.9852C5.56074 42.0145 5.4087 42.0001 5.27035 41.944C5.13199 41.8879 5.01352 41.7924 4.92985 41.6697C4.84619 41.547 4.80107 41.4026 4.80019 41.2545V37.2543H0.759769C0.59495 37.2524 0.435057 37.1984 0.303423 37.1002C0.171788 37.002 0.0753001 36.8647 0.0280378 36.7083C-0.0161131 36.552 -0.00794824 36.3856 0.0513096 36.2342C0.110567 36.0828 0.217735 35.9545 0.356787 35.8684C12.4039 28.5398 2.84891 27.5004 13.6022 34.8185C11.2161 37.0233 7.93921 39.9421 6.09398 41.7795ZM2.78528 6.73271C2.8111 6.61073 2.86595 6.49661 2.94526 6.39983C3.02457 6.30305 3.12605 6.2264 3.24129 6.17624L18.7243 0.0551269C18.8116 0.0187429 18.9053 0 19 0C19.0947 0 19.1884 0.0187429 19.2757 0.0551269L34.7587 6.17624C34.8739 6.2264 34.9754 6.30305 35.0547 6.39983C35.1341 6.49661 35.1889 6.61073 35.2147 6.73271C37.8765 18.7965 30.538 31.5532 19 35.8474C7.4832 31.5427 0.12348 18.786 2.78528 6.73271ZM37.972 36.7083C37.9247 36.8647 37.8282 37.002 37.6966 37.1002C37.5649 37.1984 37.4051 37.2524 37.2402 37.2543H33.1998V41.2545C33.1965 41.4015 33.15 41.5443 33.0659 41.6654C32.9819 41.7866 32.8639 41.8808 32.7266 41.9365C32.5892 41.9923 32.4384 42.0071 32.2926 41.9792C32.1469 41.9513 32.0125 41.8819 31.906 41.7795C30.4638 40.3411 28.258 38.3357 26.1158 36.3934C25.5325 35.8684 24.9493 35.3329 24.3978 34.8185C24.7371 34.6085 25.0765 34.3775 25.4159 34.1465C26.9371 33.0922 28.3443 31.8854 29.6154 30.5452C29.8805 30.2617 30.1456 29.9678 30.4426 29.6423C31.6621 31.6057 34.0623 33.681 37.6432 35.8684C37.7823 35.9545 37.8894 36.0828 37.9487 36.2342C38.0079 36.3856 38.0161 36.552 37.972 36.7083ZM9.9117 17.2531C9.9117 19.6395 10.8692 21.9281 12.5736 23.6156C14.278 25.303 16.5896 26.251 19 26.251C21.4104 26.251 23.722 25.303 25.4264 23.6156C27.1308 21.9281 28.0883 19.6395 28.0883 17.2531C27.6005 5.3153 10.4101 5.3153 9.9117 17.2531ZM23.4434 14.1452C23.5812 14.288 23.6582 14.4779 23.6582 14.6755C23.6582 14.873 23.5812 15.0629 23.4434 15.2057L18.2365 20.3504C18.1677 20.4243 18.084 20.483 17.9909 20.5228C17.8977 20.5626 17.7971 20.5825 17.6956 20.5813C17.5944 20.5806 17.4945 20.5597 17.4016 20.52C17.3087 20.4804 17.2248 20.4227 17.1548 20.3504L14.5566 17.778C14.4188 17.6352 14.3418 17.4453 14.3418 17.2478C14.3418 17.0503 14.4188 16.8604 14.5566 16.7176C14.6268 16.6477 14.7102 16.5923 14.8021 16.5544C14.894 16.5166 14.9926 16.4971 15.0921 16.4971C15.1917 16.4971 15.2902 16.5166 15.3821 16.5544C15.474 16.5923 15.5575 16.6477 15.6277 16.7176L17.6956 18.765L22.3723 14.1452C22.4412 14.0731 22.5242 14.0157 22.6163 13.9764C22.7084 13.9372 22.8076 13.9169 22.9079 13.9169C23.0081 13.9169 23.1073 13.9372 23.1994 13.9764C23.2915 14.0157 23.3745 14.0731 23.4434 14.1452Z" fill="white"/>
</svg>
