<svg width="50" height="55" viewBox="0 0 50 55" fill="none" xmlns="http://www.w3.org/2000/svg">
<path d="M8.01839 54.7113C7.8795 54.8486 7.70247 54.9423 7.50962 54.9806C7.31676 55.0189 7.11671 55.0002 6.93467 54.9267C6.75262 54.8531 6.59674 54.7282 6.48665 54.5675C6.37656 54.4068 6.3172 54.2177 6.31604 54.0238V48.7854H0.999696C0.782829 48.7829 0.572444 48.7122 0.39924 48.5836C0.226037 48.455 0.0990791 48.2752 0.0368918 48.0704C-0.0212015 47.8657 -0.0104582 47.6479 0.0675126 47.4496C0.145483 47.2513 0.286493 47.0832 0.469457 46.9705C16.3209 37.3736 3.74857 36.0124 17.8976 45.5956C14.758 48.4829 10.4463 52.3052 8.01839 54.7113ZM3.66484 8.81664C3.69882 8.65691 3.77098 8.50747 3.87534 8.38073C3.97969 8.254 4.11323 8.15362 4.26485 8.08794L24.6372 0.07219C24.752 0.0245442 24.8754 0 25 0C25.1246 0 25.248 0.0245442 25.3628 0.07219L45.7351 8.08794C45.8868 8.15362 46.0203 8.254 46.1247 8.38073C46.229 8.50747 46.3012 8.65691 46.3352 8.81664C49.8375 24.6144 40.1816 41.3196 25 46.943C9.84632 41.3059 0.162474 24.6007 3.66484 8.81664ZM49.9631 48.0704C49.9009 48.2752 49.774 48.455 49.6008 48.5836C49.4276 48.7122 49.2172 48.7829 49.0003 48.7854H43.684V54.0238C43.6796 54.2162 43.6184 54.4032 43.5078 54.5619C43.3972 54.7205 43.242 54.8439 43.0613 54.9169C42.8805 54.9899 42.6821 55.0093 42.4903 54.9728C42.2985 54.9362 42.1217 54.8454 41.9816 54.7113C40.0839 52.8276 37.1815 50.2016 34.3629 47.658C33.5955 46.9705 32.828 46.2693 32.1024 45.5956C32.5488 45.3206 32.9954 45.0181 33.442 44.7156C35.4435 43.335 37.2952 41.7547 38.9676 39.9997C39.3165 39.6285 39.6653 39.2435 40.056 38.8173C41.6607 41.3884 44.8189 44.1061 49.5305 46.9705C49.7135 47.0832 49.8545 47.2513 49.9325 47.4496C50.0105 47.6479 50.0212 47.8657 49.9631 48.0704ZM13.0417 22.5933C13.0417 25.7183 14.3016 28.7154 16.5442 30.9251C18.7868 33.1349 21.8285 34.3763 25 34.3763C28.1715 34.3763 31.2132 33.1349 33.4558 30.9251C35.6984 28.7154 36.9583 25.7183 36.9583 22.5933C36.3164 6.96051 13.6975 6.96051 13.0417 22.5933ZM30.8466 18.5235C31.028 18.7105 31.1292 18.9592 31.1292 19.2179C31.1292 19.4765 31.028 19.7252 30.8466 19.9122L23.9953 26.6493C23.9049 26.746 23.7948 26.823 23.6722 26.8751C23.5496 26.9272 23.4172 26.9533 23.2837 26.9518C23.1506 26.9507 23.019 26.9234 22.8968 26.8715C22.7746 26.8195 22.6642 26.744 22.5721 26.6493L19.1534 23.2807C18.972 23.0938 18.8708 22.8451 18.8708 22.5864C18.8708 22.3278 18.972 22.0791 19.1534 21.8921C19.2458 21.8006 19.3556 21.728 19.4765 21.6784C19.5974 21.6289 19.7271 21.6034 19.8581 21.6034C19.989 21.6034 20.1187 21.6289 20.2396 21.6784C20.3606 21.728 20.4704 21.8006 20.5627 21.8921L23.2837 24.5732L29.4373 18.5235C29.5279 18.4291 29.6371 18.3539 29.7583 18.3025C29.8795 18.251 30.01 18.2245 30.1419 18.2245C30.2738 18.2245 30.4044 18.251 30.5255 18.3025C30.6467 18.3539 30.7559 18.4291 30.8466 18.5235Z" fill="url(#paint0_linear_6113_300)"/>
<defs>
<linearGradient id="paint0_linear_6113_300" x1="-16.861" y1="27.5017" x2="66.861" y2="27.5017" gradientUnits="userSpaceOnUse">
<stop stop-color="#7F00FF"/>
<stop offset="1" stop-color="#E100FF"/>
</linearGradient>
</defs>
</svg>
