<svg width="1437" height="559" viewBox="0 0 1437 559" fill="none" xmlns="http://www.w3.org/2000/svg">
<path opacity="0.3" fill-rule="evenodd" clip-rule="evenodd" d="M1436.17 557.666V558.666H0V557.666H1436.17ZM1.54883 79.667H80.2158V2.59668H81.2158V79.667H159.882V2.59668H160.882V79.667H239.549V2.59668H240.549V79.667H319.215V2.59668H320.215V79.667H398.882V2.59668H399.882V79.667H478.548V2.59668H479.548V79.667H558.215V2.59668H559.215V79.667H637.882V2.59668H638.882V79.667H717.548V2.59668H718.626V79.667H797.293V2.59668H798.293V79.667H876.959V2.59668H877.959V79.667H956.626V2.59668H957.626V79.667H1036.29V2.59668H1037.29V79.667H1115.96V2.59668H1116.96V79.667H1195.62V2.59668H1196.62V79.667H1275.29V2.59668H1276.29V79.667H1354.96V2.59668H1355.96V79.667H1434.62V2.59668H1435.62V79.667H1436.17V80.667H1435.62V159.333H1436.17V160.333H1435.62V239H1436.17V240H1435.62V318.666H1436.17V319.666H1435.62V398.333H1436.17V399.333H1435.62V477.999H1436.17V478.999H1435.62V556.069H1434.62V478.999H1355.96V556.069H1354.96V478.999H1276.29V556.069H1275.29V478.999H1196.62V556.069H1195.62V478.999H1116.96V556.069H1115.96V478.999H1037.29V556.069H1036.29V478.999H957.626V556.069H956.626V478.999H877.959V556.069H876.959V478.999H798.293V556.069H797.293V478.999H718.626V556.069H717.548V478.999H638.882V556.069H637.882V478.999H559.215V556.069H558.215V478.999H479.548V556.069H478.548V478.999H399.882V556.069H398.882V478.999H320.215V556.069H319.215V478.999H240.549V556.069H239.549V478.999H160.882V556.069H159.882V478.999H81.2158V556.069H80.2158V478.999H1.54883V556.069H0.548828V478.999H0V477.999H0.548828V399.333H0V398.333H0.548828V319.666H0V318.666H0.548828V240H0V239H0.548828V160.333H0V159.333H0.548828V80.667H0V79.667H0.548828V2.59668H1.54883V79.667ZM1.54883 477.999H80.2158V399.333H1.54883V477.999ZM81.2158 477.999H159.882V399.333H81.2158V477.999ZM160.882 477.999H239.549V399.333H160.882V477.999ZM240.549 477.999H319.215V399.333H240.549V477.999ZM320.215 477.999H398.882V399.333H320.215V477.999ZM399.882 477.999H478.548V399.333H399.882V477.999ZM479.548 477.999H558.215V399.333H479.548V477.999ZM559.215 477.999H637.882V399.333H559.215V477.999ZM638.882 477.999H717.548V399.333H638.882V477.999ZM718.626 477.999H797.293V399.333H718.626V477.999ZM798.293 477.999H876.959V399.333H798.293V477.999ZM877.959 477.999H956.626V399.333H877.959V477.999ZM957.626 477.999H1036.29V399.333H957.626V477.999ZM1037.29 477.999H1115.96V399.333H1037.29V477.999ZM1116.96 477.999H1195.62V399.333H1116.96V477.999ZM1196.62 477.999H1275.29V399.333H1196.62V477.999ZM1276.29 477.999H1354.96V399.333H1276.29V477.999ZM1355.96 477.999H1434.62V399.333H1355.96V477.999ZM1.54883 398.333H80.2158V319.666H1.54883V398.333ZM81.2158 398.333H159.882V319.666H81.2158V398.333ZM160.882 398.333H239.549V319.666H160.882V398.333ZM240.549 398.333H319.215V319.666H240.549V398.333ZM320.215 398.333H398.882V319.666H320.215V398.333ZM399.882 398.333H478.548V319.666H399.882V398.333ZM479.548 398.333H558.215V319.666H479.548V398.333ZM559.215 398.333H637.882V319.666H559.215V398.333ZM638.882 398.333H717.548V319.666H638.882V398.333ZM718.626 398.333H797.293V319.666H718.626V398.333ZM798.293 398.333H876.959V319.666H798.293V398.333ZM877.959 398.333H956.626V319.666H877.959V398.333ZM957.626 398.333H1036.29V319.666H957.626V398.333ZM1037.29 398.333H1115.96V319.666H1037.29V398.333ZM1116.96 398.333H1195.62V319.666H1116.96V398.333ZM1196.62 398.333H1275.29V319.666H1196.62V398.333ZM1276.29 398.333H1354.96V319.666H1276.29V398.333ZM1355.96 398.333H1434.62V319.666H1355.96V398.333ZM1.54883 318.666H80.2158V240H1.54883V318.666ZM81.2158 318.666H159.882V240H81.2158V318.666ZM160.882 318.666H239.549V240H160.882V318.666ZM240.549 318.666H319.215V240H240.549V318.666ZM320.215 318.666H398.882V240H320.215V318.666ZM399.882 318.666H478.548V240H399.882V318.666ZM479.548 318.666H558.215V240H479.548V318.666ZM559.215 318.666H637.882V240H559.215V318.666ZM638.882 318.666H717.548V240H638.882V318.666ZM718.626 318.666H797.293V240H718.626V318.666ZM798.293 318.666H876.959V240H798.293V318.666ZM877.959 318.666H956.626V240H877.959V318.666ZM957.626 318.666H1036.29V240H957.626V318.666ZM1037.29 318.666H1115.96V240H1037.29V318.666ZM1116.96 318.666H1195.62V240H1116.96V318.666ZM1196.62 318.666H1275.29V240H1196.62V318.666ZM1276.29 318.666H1354.96V240H1276.29V318.666ZM1355.96 318.666H1434.62V240H1355.96V318.666ZM1.54883 239H80.2158V160.333H1.54883V239ZM81.2158 239H159.882V160.333H81.2158V239ZM160.882 239H239.549V160.333H160.882V239ZM240.549 239H319.215V160.333H240.549V239ZM320.215 239H398.882V160.333H320.215V239ZM399.882 239H478.548V160.333H399.882V239ZM479.548 239H558.215V160.333H479.548V239ZM559.215 239H637.882V160.333H559.215V239ZM638.882 239H717.548V160.333H638.882V239ZM718.626 239H797.293V160.333H718.626V239ZM798.293 239H876.959V160.333H798.293V239ZM877.959 239H956.626V160.333H877.959V239ZM957.626 239H1036.29V160.333H957.626V239ZM1037.29 239H1115.96V160.333H1037.29V239ZM1116.96 239H1195.62V160.333H1116.96V239ZM1196.62 239H1275.29V160.333H1196.62V239ZM1276.29 239H1354.96V160.333H1276.29V239ZM1355.96 239H1434.62V160.333H1355.96V239ZM1.54883 159.333H80.2158V80.667H1.54883V159.333ZM81.2158 159.333H159.882V80.667H81.2158V159.333ZM160.882 159.333H239.549V80.667H160.882V159.333ZM240.549 159.333H319.215V80.667H240.549V159.333ZM320.215 159.333H398.882V80.667H320.215V159.333ZM399.882 159.333H478.548V80.667H399.882V159.333ZM479.548 159.333H558.215V80.667H479.548V159.333ZM559.215 159.333H637.882V80.667H559.215V159.333ZM638.882 159.333H717.548V80.667H638.882V159.333ZM718.626 159.333H797.293V80.667H718.626V159.333ZM798.293 159.333H876.959V80.667H798.293V159.333ZM877.959 159.333H956.626V80.667H877.959V159.333ZM957.626 159.333H1036.29V80.667H957.626V159.333ZM1037.29 159.333H1115.96V80.667H1037.29V159.333ZM1116.96 159.333H1195.62V80.667H1116.96V159.333ZM1196.62 159.333H1275.29V80.667H1196.62V159.333ZM1276.29 159.333H1354.96V80.667H1276.29V159.333ZM1355.96 159.333H1434.62V80.667H1355.96V159.333ZM1436.17 0V1H0V0H1436.17Z" fill="url(#paint0_radial_6113_315)"/>
<defs>
<radialGradient id="paint0_radial_6113_315" cx="0" cy="0" r="1" gradientUnits="userSpaceOnUse" gradientTransform="translate(718.086 279.333) rotate(90) scale(279.333 718.086)">
<stop stop-color="white"/>
<stop offset="1" stop-color="white" stop-opacity="0"/>
</radialGradient>
</defs>
</svg>
