<svg width="127" height="26" viewBox="0 0 127 26" fill="none" xmlns="http://www.w3.org/2000/svg">
<g clip-path="url(#clip0_32_1164)">
<path d="M101.61 20.4198H92.4868V14.6746H100.425V10.2627H92.4868V4.80204H101.095V0.390139H87.507V24.8055H101.61V20.4198ZM76.6576 24.8055V4.80204H83.3079V0.390139H65.08V4.80204H71.6792V24.8055H76.659H76.6576ZM52.1496 25.1951C54.7625 25.1951 57.0452 24.4877 58.8787 23.2068L55.6302 19.7C54.681 20.3425 53.5466 20.6782 52.2851 20.6782C48.383 20.6782 45.6334 17.8401 45.6334 12.6641C45.6334 11.4372 45.7853 10.3387 46.0672 9.3756L42.2688 5.27597C41.104 7.26015 40.4767 9.75143 40.4767 12.6641C40.4767 20.1905 45.223 25.1951 52.1496 25.1951ZM13.588 4.80204V0.390139H0V24.8055H14.102V20.4198H4.97841V14.6746H12.9165V10.2627H4.97841V4.80204H13.588ZM31.0601 12.5191L38.5229 0.390139H32.8661L28.3478 8.4747C28.2483 8.65295 28.1405 8.85883 28.0328 9.0799C27.9498 8.90719 27.8642 8.73585 27.7757 8.5659L23.4385 0.390139H17.4003L24.6945 12.5356L16.7674 24.8055H22.7586L27.7937 15.9983L27.8144 15.9582C27.8213 15.9693 27.8269 15.9817 27.8324 15.9928L32.739 24.8055H38.6846L31.0629 12.5177L31.0601 12.5191ZM52.4191 0.000488281C49.6501 0.000488281 47.2749 0.677541 45.3888 1.94183L48.7174 5.53574C49.6971 4.88218 50.8632 4.54227 52.1496 4.54227C56.0848 4.54227 58.6411 7.3168 58.6411 12.6296C58.6411 13.8096 58.5015 14.8735 58.239 15.8131L61.9642 19.8354C63.1345 17.8388 63.7784 15.3585 63.7784 12.5273C63.7784 5.00239 59.314 0.000488281 52.4191 0.000488281ZM108.12 21.8223C110.239 24.0594 113.093 25.1951 116.601 25.1951C119.29 25.1951 121.563 24.7198 123.36 23.7802L123.667 23.6213V18.6429L122.787 19.2136C121.289 20.1877 119.485 20.6796 117.426 20.6796C115.19 20.6796 113.453 19.9984 112.116 18.5973C110.767 17.1824 110.082 15.2508 110.082 12.859C110.082 10.3359 110.817 8.29231 112.269 6.78345C113.72 5.27597 115.576 4.54227 117.941 4.54227C119.7 4.54227 121.336 4.98581 122.805 5.86459L123.667 6.37998V1.157L123.324 1.00916C121.782 0.339015 119.833 0.000488281 117.529 0.000488281C113.93 0.000488281 110.897 1.22057 108.516 3.62479C106.151 6.01659 104.95 9.18354 104.95 13.04C104.95 16.6436 106.017 19.5991 108.121 21.8223" fill="white"/>
</g>
<defs>
<clipPath id="clip0_32_1164">
<rect width="126.567" height="25.5622" fill="white"/>
</clipPath>
</defs>
</svg>
